<svg xmlns="http://www.w3.org/2000/svg" xmlns:xlink="http://www.w3.org/1999/xlink" width="18" height="18" viewBox="0 0 18 18">
  <defs>
    <clipPath id="clip-path">
      <rect width="18" height="18" fill="none"/>
    </clipPath>
  </defs>
  <g id="Search" clip-path="url(#clip-path)">
    <path id="Path_2" data-name="Path 2" d="M2.25,7.875A5.57,5.57,0,0,1,7.875,2.25,5.57,5.57,0,0,1,13.5,7.875,5.57,5.57,0,0,1,7.875,13.5,5.57,5.57,0,0,1,2.25,7.875Zm13.837,9.788a1.114,1.114,0,0,0,1.575-1.575L14.175,12.6A7.7,7.7,0,0,0,15.75,7.875,7.827,7.827,0,0,0,7.875,0,7.827,7.827,0,0,0,0,7.875,7.827,7.827,0,0,0,7.875,15.75,7.7,7.7,0,0,0,12.6,14.175Z" fill="#fff"/>
  </g>
</svg>
